<?xml version="1.0" encoding="utf-8"?>
<!-- Generator: Adobe Illustrator 21.0.0, SVG Export Plug-In . SVG Version: 6.00 Build 0)  -->
<svg version="1.1" id="图层_1" xmlns="http://www.w3.org/2000/svg" xmlns:xlink="http://www.w3.org/1999/xlink" x="0px" y="0px"
	 viewBox="0 0 40 40" style="enable-background:new 0 0 40 40;" xml:space="preserve">
<style type="text/css">
	.st0{fill:#39B2FF;}
</style>
<path class="st0" d="M20,0C9,0,0,9,0,20s9,20,20,20s20-9,20-20S31,0,20,0z M21,29c0,0.5-0.5,1-1,1s-1-0.5-1-1V17c0-0.5,0.5-1,1-1
	s1,0.5,1,1V29z M20,13c-0.5,0-1-0.5-1-1s0.5-1,1-1s1,0.5,1,1S20.5,13,20,13z"/>
</svg>
