<?xml version="1.0" encoding="utf-8"?>
<!-- Generator: Adobe Illustrator 21.0.0, SVG Export Plug-In . SVG Version: 6.00 Build 0)  -->
<svg version="1.1" id="图层_1" xmlns="http://www.w3.org/2000/svg" xmlns:xlink="http://www.w3.org/1999/xlink" x="0px" y="0px"
	 viewBox="0 0 40 40" style="enable-background:new 0 0 40 40;" xml:space="preserve">
<style type="text/css">
	.st0{fill:#FFD717;}
</style>
<path class="st0" d="M39.7,34.9L21.2,4c-0.5-0.9-1.9-0.9-2.4,0L0.3,34.9C-0.3,35.8,0.4,37,1.5,37h37C39.6,37,40.3,35.8,39.7,34.9z
	 M20,32c-0.6,0-1-0.4-1-1s0.4-1,1-1s1,0.4,1,1S20.6,32,20,32z M21,26c0,0.5-0.5,1-1,1s-1-0.5-1-1V14c0-0.5,0.5-1,1-1s1,0.5,1,1V26z"
	/>
</svg>
