<?xml version="1.0" encoding="utf-8"?>
<!-- Generator: Adobe Illustrator 21.0.0, SVG Export Plug-In . SVG Version: 6.00 Build 0)  -->
<svg version="1.1" id="图层_1" xmlns="http://www.w3.org/2000/svg" xmlns:xlink="http://www.w3.org/1999/xlink" x="0px" y="0px"
	 viewBox="0 0 40 40" style="enable-background:new 0 0 40 40;" xml:space="preserve">
<style type="text/css">
	.st0{fill:#0CE084;}
</style>
<path class="st0" d="M20,0C9,0,0,9,0,20s9,20,20,20s20-9,20-20S31,0,20,0z M31.6,13.9L18.9,26.6c-0.4,0.4-1,0.4-1.4,0l-7.1-7.1
	c-0.4-0.4-0.4-1,0-1.4c0.4-0.4,1-0.4,1.4,0l6.4,6.4l12-12c0.4-0.4,1-0.4,1.4,0C32,12.9,32,13.5,31.6,13.9z"/>
</svg>
