<?xml version="1.0" encoding="utf-8"?>
<!-- Generator: Adobe Illustrator 21.0.0, SVG Export Plug-In . SVG Version: 6.00 Build 0)  -->
<svg version="1.1" id="图层_1" xmlns="http://www.w3.org/2000/svg" xmlns:xlink="http://www.w3.org/1999/xlink" x="0px" y="0px"
	 viewBox="0 0 40 40" style="enable-background:new 0 0 40 40;" xml:space="preserve">
<style type="text/css">
	.st0{fill:#FFD718;}
</style>
<path class="st0" d="M20,0C9,0,0,9,0,20s9,20,20,20s20-9,20-20S31,0,20,0z M20.3,29.7c-0.6,0-1.1-0.5-1.1-1.2s0.5-1.2,1.1-1.2
	s1.2,0.5,1.2,1.2S20.9,29.7,20.3,29.7z M25.8,18c-0.4,0.7-1.1,1.5-2.2,2.5c-0.7,0.7-1.2,1.1-1.5,1.5c-0.2,0.3-0.4,0.7-0.5,1.1
	c-0.1,0.2-0.1,0.5-0.1,0.9c0,0,0,0.1,0,0.1c0,0.1,0,0.1,0,0.2c0,0.6-0.5,1.1-1.1,1.1c-0.6,0-1-0.4-1.1-0.9c0,0,0,0,0-0.1
	c0,0,0-0.1,0-0.1c0,0,0,0,0,0c0,0,0,0,0,0c0-0.8,0.1-1.6,0.4-2.2c0.2-0.5,0.5-1,0.9-1.5c0.3-0.4,0.9-0.9,1.6-1.6
	c0.8-0.7,1.3-1.3,1.5-1.7s0.4-0.9,0.4-1.4c0-0.9-0.3-1.7-1-2.3c-0.7-0.7-1.5-1-2.6-1c-1,0-1.8,0.3-2.4,0.9c-0.5,0.4-0.8,1.1-1.1,1.9
	c-0.2,0.6-0.7,0.9-1.3,0.9c-0.7-0.1-1.2-0.8-1-1.5c0.3-1.1,0.9-2,1.6-2.7c1-0.9,2.4-1.6,4.1-1.6c1.8,0,3.3,0.7,4.4,1.7
	s1.6,2.2,1.6,3.6C26.4,16.5,26.2,17.3,25.8,18z"/>
</svg>
