<?xml version="1.0" encoding="utf-8"?>
<!-- Generator: Adobe Illustrator 21.0.0, SVG Export Plug-In . SVG Version: 6.00 Build 0)  -->
<svg version="1.1" id="图层_1" xmlns="http://www.w3.org/2000/svg" xmlns:xlink="http://www.w3.org/1999/xlink" x="0px" y="0px"
	 viewBox="0 0 16 16" style="enable-background:new 0 0 16 16;" xml:space="preserve">
<style type="text/css">
	.st0{fill:#040000;}
</style>
<path class="st0" d="M13,6l0.2-3.3C14.3,4,15,5.7,15,7.5c0,4.1-3.4,7.5-7.5,7.5c-1.8,0-3.5-0.7-4.8-1.8l0.7-0.7
	C4.5,13.4,5.9,14,7.5,14c3.6,0,6.5-2.9,6.5-6.5c0-0.7-0.1-1.5-0.4-2.1L13,6 M1.9,8.4l-0.6,3.4C0.5,10.5,0,9.1,0,7.5
	C0,3.4,3.4,0,7.5,0c1.6,0,3,0.5,4.3,1.3L11,2.1C10,1.4,8.8,1,7.5,1C3.9,1,1,3.9,1,7.5C1,8.2,1.1,9,1.4,9.6L1.1,8.9L1.9,8.4"/>
</svg>
