<?xml version="1.0" encoding="utf-8"?>
<!-- Generator: Adobe Illustrator 21.0.0, SVG Export Plug-In . SVG Version: 6.00 Build 0)  -->
<svg version="1.1" id="图层_1" xmlns="http://www.w3.org/2000/svg" xmlns:xlink="http://www.w3.org/1999/xlink" x="0px" y="0px"
	 viewBox="0 0 16 16" style="enable-background:new 0 0 16 16;" xml:space="preserve">
<style type="text/css">
	.st0{fill:#040000;}
</style>
<path class="st0" d="M13.5,5H13v10.5c0,0.3-0.2,0.5-0.5,0.5h-9C3.2,16,3,15.8,3,15.5V5H2.5C2.2,5,2,4.8,2,4.5S2.2,4,2.5,4h11
	C13.8,4,14,4.2,14,4.5S13.8,5,13.5,5z M6,5H4v10h2V5z M9,5H7v10h2V5z M12,5h-2v10h2V5z M10.5,1C10.2,1,10,0.8,10,0.5S10.2,0,10.5,0
	S11,0.2,11,0.5S10.8,1,10.5,1z M8.5,3C8.2,3,8,2.8,8,2.5S8.2,2,8.5,2S9,2.2,9,2.5S8.8,3,8.5,3z M7.5,1C7.2,1,7,0.8,7,0.5
	S7.2,0,7.5,0S8,0.2,8,0.5S7.8,1,7.5,1z M5.5,3C5.2,3,5,2.8,5,2.5S5.2,2,5.5,2S6,2.2,6,2.5S5.8,3,5.5,3z"/>
</svg>
