<?xml version="1.0" encoding="utf-8"?>
<!-- Generator: Adobe Illustrator 21.0.0, SVG Export Plug-In . SVG Version: 6.00 Build 0)  -->
<svg version="1.1" id="图层_1" xmlns="http://www.w3.org/2000/svg" xmlns:xlink="http://www.w3.org/1999/xlink" x="0px" y="0px"
	 viewBox="0 0 16 16" style="enable-background:new 0 0 16 16;" xml:space="preserve">
<style type="text/css">
	.st0{fill:#040000;}
</style>
<path class="st0" d="M15.9,9.4l-0.1,0.4h-0.4c-1.3,0.2-2.3,1.3-2.3,2.5c0,0.4,0.1,0.7,0.2,1l0.1,0.3l-0.3,0.2
	c-0.8,0.7-1.7,1.2-2.7,1.5l-0.3,0.1L10,15.3c-0.5-0.6-1.2-1-2-1s-1.5,0.4-2,1l-0.2,0.3l-0.3-0.1c-1.1-0.4-2-0.9-2.8-1.6l-0.3-0.2
	l0.1-0.3c0.1-0.3,0.2-0.6,0.2-0.9c0-1.2-0.9-2.3-2.1-2.5L0.3,9.9L0.2,9.6C0,8.9,0,8.5,0,8s0.1-1.1,0.2-1.6l0.1-0.3L0.6,6
	c1.2-0.3,2.1-1.3,2.1-2.5c0-0.3,0-0.5-0.1-0.8L2.4,2.4l0.2-0.2c0.8-0.7,1.8-1.3,2.8-1.6l0.3-0.1L6,0.7c1,1.1,3,1.1,4,0l0.2-0.2
	l0.3,0.1c1,0.3,1.9,0.8,2.7,1.5l0.3,0.2l-0.1,0.3c-0.1,0.3-0.2,0.6-0.2,0.9c0,1.3,1,2.3,2.2,2.5l0.3,0.1l0.1,0.3
	C15.9,6.9,16,7.5,16,8C16,8.5,16,8.9,15.9,9.4z M14.9,6.9c-1.6-0.4-2.7-1.8-2.7-3.4c0-0.3,0-0.6,0.1-0.9c-0.5-0.4-1.1-0.8-1.8-1
	c-1.3,1.3-3.7,1.3-5,0c-0.7,0.3-1.4,0.6-2,1.1C3.6,3,3.6,3.2,3.6,3.5c0,1.6-1,2.9-2.5,3.4C1,7.2,1,7.6,1,8c0,0.3,0,0.6,0.1,0.9
	c1.5,0.4,2.6,1.8,2.6,3.4c0,0.3,0,0.6-0.1,1c0.6,0.5,1.2,0.9,1.9,1.1c0.7-0.7,1.6-1.1,2.6-1.1s1.9,0.4,2.6,1.1
	c0.6-0.2,1.2-0.6,1.8-1c-0.1-0.3-0.2-0.7-0.2-1.1c0-1.6,1.2-3.1,2.8-3.4c0-0.3,0.1-0.6,0.1-0.8C15,7.6,15,7.3,14.9,6.9z M8,10.8
	c-1.6,0-2.8-1.2-2.8-2.8S6.5,5.2,8,5.2c1.6,0,2.8,1.2,2.8,2.8C10.8,9.5,9.6,10.8,8,10.8z M8,6.2C7,6.2,6.1,7,6.1,8S6.9,9.8,8,9.8
	S9.9,9,9.9,8S9,6.2,8,6.2z"/>
</svg>
