<?xml version="1.0" encoding="utf-8"?>
<!-- Generator: Adobe Illustrator 21.0.0, SVG Export Plug-In . SVG Version: 6.00 Build 0)  -->
<svg version="1.1" id="图层_1" xmlns="http://www.w3.org/2000/svg" xmlns:xlink="http://www.w3.org/1999/xlink" x="0px" y="0px"
	 viewBox="0 0 16 16" style="enable-background:new 0 0 16 16;" xml:space="preserve">
<path d="M14.9,14.1L10.7,10C11.5,9,12,7.8,12,6.5C12,3.5,9.5,1,6.5,1S1,3.5,1,6.5S3.5,12,6.5,12c1.3,0,2.6-0.5,3.5-1.3l4.1,4.1
	c0.1,0.1,0.2,0.1,0.4,0.1s0.3,0,0.4-0.1C15,14.7,15,14.3,14.9,14.1z M6.5,11C4,11,2,9,2,6.5S4,2,6.5,2S11,4,11,6.5S9,11,6.5,11z"/>
</svg>
