<?xml version="1.0" encoding="utf-8"?>
<!-- Generator: Adobe Illustrator 21.0.0, SVG Export Plug-In . SVG Version: 6.00 Build 0)  -->
<svg version="1.1" id="图层_1" xmlns="http://www.w3.org/2000/svg" xmlns:xlink="http://www.w3.org/1999/xlink" x="0px" y="0px"
	 viewBox="0 0 16 16" style="enable-background:new 0 0 16 16;" xml:space="preserve">
<style type="text/css">
	.st0{fill:#040000;}
</style>
<path class="st0" d="M15.8,15h-1c-0.6-2.8-3.4-5-6.9-5S1.6,12.2,1,15H0c0.4-2.7,2.6-4.9,5.5-5.7C3.9,8.5,2.9,6.9,2.9,5
	c0-2.8,2.2-5,5-5s5,2.2,5,5c0,1.9-1,3.5-2.6,4.3C13.2,10.1,15.4,12.3,15.8,15z M11.9,5c0-2.2-1.8-4-4-4s-4,1.8-4,4s1.8,4,4,4
	S11.9,7.2,11.9,5z"/>
</svg>
