<?xml version="1.0" encoding="utf-8"?>
<!-- Generator: Adobe Illustrator 21.0.0, SVG Export Plug-In . SVG Version: 6.00 Build 0)  -->
<svg version="1.1" id="图层_1" xmlns="http://www.w3.org/2000/svg" xmlns:xlink="http://www.w3.org/1999/xlink" x="0px" y="0px"
	 viewBox="0 0 16 16" style="enable-background:new 0 0 16 16;" xml:space="preserve">
<style type="text/css">
	.st0{fill:#040000;}
</style>
<g>
	<path class="st0" d="M7.5,0C3.4,0,0,3.4,0,7.5S3.4,15,7.5,15S15,11.6,15,7.5S11.6,0,7.5,0z M12.1,12.1c-0.6,0.6-1.3,1.1-2.1,1.4
		S8.3,14,7.5,14S5.8,13.8,5,13.5s-1.5-0.8-2.1-1.4S1.8,10.8,1.5,10S1,8.4,1,7.5C1,3.9,3.9,1,7.5,1S14,3.9,14,7.5
		c0,0.9-0.2,1.7-0.5,2.5S12.7,11.5,12.1,12.1z"/>
	<path class="st0" d="M7.6,3.3c-0.4,0-0.7,0.1-1,0.2C6.4,3.6,6.1,3.7,5.8,4C5.5,4.2,5.3,4.5,5.2,4.8C5.1,5,5,5.5,5,6h1
		c0-1.2,0.6-1.8,1.5-1.8c0.4,0,0.8,0.1,1,0.4c0.3,0.3,0.4,0.6,0.4,0.9S8.7,6.2,8.6,6.4C8.3,6.8,7.7,7.5,7.4,7.8C6.9,8.5,7,9.6,7,10
		h1c0-0.4-0.1-1.3,0.5-2c0.4-0.4,1.2-1.4,1.3-1.6C9.9,6.2,10,5.9,10,5.6c0-0.7-0.2-1.2-0.7-1.7C8.9,3.5,8.3,3.3,7.6,3.3z"/>
	<rect x="7" y="11" class="st0" width="1" height="1"/>
</g>
</svg>
